<svg xmlns="http://www.w3.org/2000/svg" viewBox="-0.607844 -0.5 2.096 2.3">
    <path fill="darkviolet" stroke="darkviolet" stroke-width="0.1" d="M.016.004C-.263.566-.101 1.204.1 1.157.3 1.157.416.812.45.637.409.947.465 1.428.613 1.44.908 1.446 1.391.414 1.049.396.873.406.779.672.935.765 1.14.839 1.665.488 1.381-.039 1.145-.446.686-.523.251-.405-.119-.3-.287-.096-.403.043-.683.438-.624.952-.366 1.261-.225 1.426.102 1.716.669 1.692 1.107 1.689 1.408 1.312 1.468 1.207 1.4433 1.1963 1.424 1.235 1.419 1.235 1.225 1.465 1.008 1.628.656 1.643.163 1.641-.186 1.446-.376 1.141-.601.747-.522.128-.116-.148.002-.254.609-.568 1.151-.154 1.774.429 1.051.765.979.711.882.665.896.451 1.064.469 1.26.542.843 1.395.64 1.367.469 1.359.474.751.479.616.479.589.454.548.43.618.417.679.302 1.049.127 1.094-.122 1.144-.095.368.05.012" />
</svg>